# xmcd
#
# Track frame offsets:
#	150
#	19780
#	33900
#	48220
#	61602
#	78608
#	90428
#	101516
#	124751
#	143803
#	159538
#	175273
#	190304
#	209679
#	229742
#	247505
#	261806
#	272039
#	283754
#	298909
#
# Disc length: 4133 seconds
#
# Revision: 0
# Processed by: cddbd v1.5.1PL2 Copyright (c) Steve Scherf et al.
# Submitted via: dBpowerAMP V4.0
#
DISCID=17102314
DTITLE=Varios - 20 mais do Samba
DYEAR=2000
DGENRE=Samba
TTITLE0=Canto das tres raças
TTITLE1=Trem das onze
TTITLE2=Argumento
TTITLE3=Só queria ser feliz
TTITLE4=Madalena do Jucu
TTITLE5=Alvorada
TTITLE6=Salve a modidade
TTITLE7=Sonho meu
TTITLE8=Chorei
TTITLE9=Porta aberta
TTITLE10=Resto de esperança
TTITLE11=Tudo está em seu lugar
TTITLE12=O que é, o que é
TTITLE13=Não deixe o samba morrer
TTITLE14=Tô voltando
TTITLE15=Juízo final
TTITLE16=Pimenta no vatapá
TTITLE17=O samba do Arnesto
TTITLE18=Desesperar, jamais
TTITLE19=Das 200 prá lá
EXTD=
EXTT0=
EXTT1=
EXTT2=
EXTT3=
EXTT4=
EXTT5=
EXTT6=
EXTT7=
EXTT8=
EXTT9=
EXTT10=
EXTT11=
EXTT12=
EXTT13=
EXTT14=
EXTT15=
EXTT16=
EXTT17=
EXTT18=
EXTT19=
PLAYORDER=
